<svg width="40" height="40" viewBox="0 0 40 40" fill="none" xmlns="http://www.w3.org/2000/svg">
<path opacity="0.5" fill-rule="evenodd" clip-rule="evenodd" d="M20 12C19.0099 12 18.1083 12.5106 16.305 13.5318L15.695 13.8772C13.8917 14.8984 12.9901 15.409 12.495 16.25C12 17.091 12 18.1122 12 20.1546V20.8454C12 22.8878 12 23.909 12.495 24.75C12.9901 25.591 13.8917 26.1016 15.695 27.1228L16.305 27.4682C18.1083 28.4894 19.0099 29 20 29C20.9901 29 21.8917 28.4894 23.695 27.4682L24.305 27.1228C26.1083 26.1016 27.0099 25.591 27.505 24.75C28 23.909 28 22.8878 28 20.8454V20.1546C28 18.1122 28 17.091 27.505 16.25C27.0099 15.409 26.1083 14.8984 24.305 13.8772L23.695 13.5318C21.8917 12.5106 20.9901 12 20 12Z" fill="#7F8596"/>
<path d="M20.0013 17.3125C18.1604 17.3125 16.668 18.7396 16.668 20.5C16.668 22.2604 18.1604 23.6875 20.0013 23.6875C21.8423 23.6875 23.3346 22.2604 23.3346 20.5C23.3346 18.7396 21.8423 17.3125 20.0013 17.3125Z" fill="#7F8596"/>
</svg>
