<svg width="40" height="40" viewBox="0 0 40 40" fill="none" xmlns="http://www.w3.org/2000/svg">
<path d="M16.4781 18.0711C16.2517 17.9565 15.9766 18.0563 15.8734 18.2904L12.1466 26.7518C11.5537 28.0981 12.8703 29.4945 14.1039 28.8276L19.3517 25.9908C19.7598 25.7702 20.2402 25.7702 20.6483 25.9908L25.8961 28.8276C27.1297 29.4945 28.4463 28.0981 27.8534 26.7518L26.4563 23.58C26.2887 23.1994 25.9959 22.8895 25.6277 22.7031L16.4781 18.0711Z" fill="#7F8596"/>
<path opacity="0.5" d="M16.986 16.8196C16.7733 16.7119 16.682 16.4537 16.7789 16.2338L18.6905 11.8935C19.2153 10.7022 20.7836 10.7022 21.3084 11.8935L24.8354 19.9014C25.0054 20.2873 24.604 20.6761 24.2307 20.4872L16.986 16.8196Z" fill="#7F8596"/>
</svg>
