<svg width="32" height="32" viewBox="0 0 32 32" fill="none" xmlns="http://www.w3.org/2000/svg">
    <rect x="0.5" y="0.5" width="31" height="31" rx="7.5" fill="white" />
    <rect x="0.5" y="0.5" width="31" height="31" rx="7.5" stroke="#E6EBF3" />
    <path d="M22.666 16H9.33268M9.33268 16L14.3327 21M9.33268 16L14.3327 11" stroke="#191C20"
        stroke-width="1.3" stroke-linecap="round" stroke-linejoin="round" />
    <path d="M22.666 16H9.33268M9.33268 16L14.3327 21M9.33268 16L14.3327 11" stroke="black"
        stroke-opacity="0.2" stroke-width="1.3" stroke-linecap="round" stroke-linejoin="round" />
    <path d="M22.666 16H9.33268M9.33268 16L14.3327 21M9.33268 16L14.3327 11" stroke="black"
        stroke-opacity="0.2" stroke-width="1.3" stroke-linecap="round" stroke-linejoin="round" />
    <path d="M22.666 16H9.33268M9.33268 16L14.3327 21M9.33268 16L14.3327 11" stroke="black"
        stroke-opacity="0.2" stroke-width="1.3" stroke-linecap="round" stroke-linejoin="round" />
    <path d="M22.666 16H9.33268M9.33268 16L14.3327 21M9.33268 16L14.3327 11" stroke="black"
        stroke-opacity="0.2" stroke-width="1.3" stroke-linecap="round" stroke-linejoin="round" />
    <path d="M22.666 16H9.33268M9.33268 16L14.3327 21M9.33268 16L14.3327 11" stroke="black"
        stroke-opacity="0.2" stroke-width="1.3" stroke-linecap="round" stroke-linejoin="round" />
    <path d="M22.666 16H9.33268M9.33268 16L14.3327 21M9.33268 16L14.3327 11" stroke="black"
        stroke-opacity="0.2" stroke-width="1.3" stroke-linecap="round" stroke-linejoin="round" />
</svg>