<svg width="40" height="40" viewBox="0 0 40 40" fill="none" xmlns="http://www.w3.org/2000/svg">
<path d="M14.614 10C15.0024 10 15.3173 10.2883 15.3173 10.644V11.9431C15.941 11.932 16.6403 11.932 17.427 11.932H17.427H21.1777H21.1777C21.9644 11.932 22.6636 11.932 23.2874 11.9431V10.644C23.2874 10.2883 23.6023 10 23.9907 10C24.379 10 24.6939 10.2883 24.6939 10.644V12.0001C26.0435 12.099 26.9295 12.3419 27.5804 12.938C28.2314 13.5341 28.4966 14.3455 28.6047 15.5814V16.5116H10V15.5814C10.1081 14.3455 10.3733 13.5341 11.0242 12.938C11.6752 12.3419 12.5611 12.099 13.9108 12.0001V10.644C13.9108 10.2883 14.2256 10 14.614 10Z" fill="#0062FF"/>
<path opacity="0.5" d="M28.6047 21.1628V19.3023C28.6047 18.5218 28.5929 17.1305 28.5809 16.5116H10.0054C9.99345 17.1305 10.0052 18.5218 10.0052 19.3023V21.1628C10.0052 24.6709 10.0052 26.425 11.0948 27.5148C12.1843 28.6047 13.9379 28.6047 17.445 28.6047H21.1649C24.672 28.6047 26.4256 28.6047 27.5151 27.5148C28.6047 26.425 28.6047 24.6709 28.6047 21.1628Z" fill="#0062FF"/>
<path fill-rule="evenodd" clip-rule="evenodd" d="M25.5821 23.4884C24.4262 23.4884 23.4891 24.4254 23.4891 25.5814C23.4891 26.7373 24.4262 27.6744 25.5821 27.6744C26.7381 27.6744 27.6751 26.7373 27.6751 25.5814C27.6751 24.4254 26.7381 23.4884 25.5821 23.4884ZM22.0938 25.5814C22.0938 23.6548 23.6555 22.093 25.5821 22.093C27.5087 22.093 29.0705 23.6548 29.0705 25.5814C29.0705 26.2924 28.8578 26.9537 28.4925 27.5052L29.7964 28.809C30.0688 29.0814 30.0688 29.5232 29.7964 29.7957C29.5239 30.0681 29.0822 30.0681 28.8097 29.7957L27.5059 28.4918C26.9544 28.8571 26.2931 29.0698 25.5821 29.0698C23.6555 29.0698 22.0938 27.508 22.0938 25.5814Z" fill="#0062FF"/>
</svg>
