<svg width="40" height="40" viewBox="0 0 40 40" fill="none" xmlns="http://www.w3.org/2000/svg">
<path opacity="0.5" fill-rule="evenodd" clip-rule="evenodd" d="M29 20C29 24.9706 24.9706 29 20 29C15.0294 29 11 24.9706 11 20C11 15.0294 15.0294 11 20 11C24.9706 11 29 15.0294 29 20Z" fill="#7F8596"/>
<path d="M20.675 14.6C20.675 14.2272 20.3728 13.925 20 13.925C19.6272 13.925 19.325 14.2272 19.325 14.6V14.885C17.8576 15.1478 16.625 16.2502 16.625 17.75C16.625 19.4754 18.2565 20.675 20 20.675C21.2388 20.675 22.025 21.4901 22.025 22.25C22.025 23.0098 21.2388 23.825 20 23.825C18.7612 23.825 17.975 23.0098 17.975 22.25C17.975 21.8772 17.6728 21.575 17.3 21.575C16.9272 21.575 16.625 21.8772 16.625 22.25C16.625 23.7497 17.8576 24.8522 19.325 25.1149V25.4C19.325 25.7728 19.6272 26.075 20 26.075C20.3728 26.075 20.675 25.7728 20.675 25.4V25.1149C22.1424 24.8522 23.375 23.7497 23.375 22.25C23.375 20.5245 21.7435 19.325 20 19.325C18.7612 19.325 17.975 18.5098 17.975 17.75C17.975 16.9901 18.7612 16.175 20 16.175C21.2388 16.175 22.025 16.9901 22.025 17.75C22.025 18.1228 22.3272 18.425 22.7 18.425C23.0728 18.425 23.375 18.1228 23.375 17.75C23.375 16.2502 22.1424 15.1478 20.675 14.885V14.6Z" fill="#7F8596"/>
</svg>
