<svg width="94" height="44" viewBox="0 0 94 44" fill="none" xmlns="http://www.w3.org/2000/svg">
    <rect x="0.5" y="0.5" width="93" height="43" rx="7.5" stroke="#E6EBF3" />
    <path
        d="M27.4577 22.9111C27.4577 21.7552 28.4371 20.8181 29.6452 20.8181C30.8533 20.8181 31.8327 21.7552 31.8327 22.9111C31.8327 24.0671 30.8533 25.0041 29.6452 25.0041C28.4371 25.0041 27.4577 24.0671 27.4577 22.9111Z"
        fill="#191C20" />
    <path
        d="M27.4577 22.9111C27.4577 21.7552 28.4371 20.8181 29.6452 20.8181C30.8533 20.8181 31.8327 21.7552 31.8327 22.9111C31.8327 24.0671 30.8533 25.0041 29.6452 25.0041C28.4371 25.0041 27.4577 24.0671 27.4577 22.9111Z"
        fill="black" fill-opacity="0.2" />
    <path
        d="M27.4577 22.9111C27.4577 21.7552 28.4371 20.8181 29.6452 20.8181C30.8533 20.8181 31.8327 21.7552 31.8327 22.9111C31.8327 24.0671 30.8533 25.0041 29.6452 25.0041C28.4371 25.0041 27.4577 24.0671 27.4577 22.9111Z"
        fill="black" fill-opacity="0.2" />
    <path
        d="M27.4577 22.9111C27.4577 21.7552 28.4371 20.8181 29.6452 20.8181C30.8533 20.8181 31.8327 21.7552 31.8327 22.9111C31.8327 24.0671 30.8533 25.0041 29.6452 25.0041C28.4371 25.0041 27.4577 24.0671 27.4577 22.9111Z"
        fill="black" fill-opacity="0.2" />
    <path
        d="M27.4577 22.9111C27.4577 21.7552 28.4371 20.8181 29.6452 20.8181C30.8533 20.8181 31.8327 21.7552 31.8327 22.9111C31.8327 24.0671 30.8533 25.0041 29.6452 25.0041C28.4371 25.0041 27.4577 24.0671 27.4577 22.9111Z"
        fill="black" fill-opacity="0.2" />
    <path
        d="M27.4577 22.9111C27.4577 21.7552 28.4371 20.8181 29.6452 20.8181C30.8533 20.8181 31.8327 21.7552 31.8327 22.9111C31.8327 24.0671 30.8533 25.0041 29.6452 25.0041C28.4371 25.0041 27.4577 24.0671 27.4577 22.9111Z"
        fill="black" fill-opacity="0.2" />
    <path
        d="M27.4577 22.9111C27.4577 21.7552 28.4371 20.8181 29.6452 20.8181C30.8533 20.8181 31.8327 21.7552 31.8327 22.9111C31.8327 24.0671 30.8533 25.0041 29.6452 25.0041C28.4371 25.0041 27.4577 24.0671 27.4577 22.9111Z"
        fill="black" fill-opacity="0.2" />
    <path
        d="M20.166 19.4227C20.166 20.5787 21.1454 21.5158 22.3535 21.5158C23.5616 21.5158 24.541 20.5787 24.541 19.4227C24.541 18.2668 23.5616 17.3297 22.3535 17.3297C21.1454 17.3297 20.166 18.2668 20.166 19.4227Z"
        fill="#191C20" />
    <path
        d="M20.166 19.4227C20.166 20.5787 21.1454 21.5158 22.3535 21.5158C23.5616 21.5158 24.541 20.5787 24.541 19.4227C24.541 18.2668 23.5616 17.3297 22.3535 17.3297C21.1454 17.3297 20.166 18.2668 20.166 19.4227Z"
        fill="black" fill-opacity="0.2" />
    <path
        d="M20.166 19.4227C20.166 20.5787 21.1454 21.5158 22.3535 21.5158C23.5616 21.5158 24.541 20.5787 24.541 19.4227C24.541 18.2668 23.5616 17.3297 22.3535 17.3297C21.1454 17.3297 20.166 18.2668 20.166 19.4227Z"
        fill="black" fill-opacity="0.2" />
    <path
        d="M20.166 19.4227C20.166 20.5787 21.1454 21.5158 22.3535 21.5158C23.5616 21.5158 24.541 20.5787 24.541 19.4227C24.541 18.2668 23.5616 17.3297 22.3535 17.3297C21.1454 17.3297 20.166 18.2668 20.166 19.4227Z"
        fill="black" fill-opacity="0.2" />
    <path
        d="M20.166 19.4227C20.166 20.5787 21.1454 21.5158 22.3535 21.5158C23.5616 21.5158 24.541 20.5787 24.541 19.4227C24.541 18.2668 23.5616 17.3297 22.3535 17.3297C21.1454 17.3297 20.166 18.2668 20.166 19.4227Z"
        fill="black" fill-opacity="0.2" />
    <path
        d="M20.166 19.4227C20.166 20.5787 21.1454 21.5158 22.3535 21.5158C23.5616 21.5158 24.541 20.5787 24.541 19.4227C24.541 18.2668 23.5616 17.3297 22.3535 17.3297C21.1454 17.3297 20.166 18.2668 20.166 19.4227Z"
        fill="black" fill-opacity="0.2" />
    <path
        d="M20.166 19.4227C20.166 20.5787 21.1454 21.5158 22.3535 21.5158C23.5616 21.5158 24.541 20.5787 24.541 19.4227C24.541 18.2668 23.5616 17.3297 22.3535 17.3297C21.1454 17.3297 20.166 18.2668 20.166 19.4227Z"
        fill="black" fill-opacity="0.2" />
    <g opacity="0.5">
        <path
            d="M22.8708 17.3883C22.7052 17.3499 22.5322 17.3295 22.3542 17.3295C22.1545 17.3295 21.961 17.3552 21.7771 17.4031L21.7771 14.19C21.7771 13.901 22.0219 13.6667 22.324 13.6667C22.626 13.6667 22.8708 13.901 22.8708 14.19L22.8708 17.3883Z"
            fill="#191C20" />
        <path
            d="M22.8708 17.3883C22.7052 17.3499 22.5322 17.3295 22.3542 17.3295C22.1545 17.3295 21.961 17.3552 21.7771 17.4031L21.7771 14.19C21.7771 13.901 22.0219 13.6667 22.324 13.6667C22.626 13.6667 22.8708 13.901 22.8708 14.19L22.8708 17.3883Z"
            fill="black" fill-opacity="0.2" />
        <path
            d="M22.8708 17.3883C22.7052 17.3499 22.5322 17.3295 22.3542 17.3295C22.1545 17.3295 21.961 17.3552 21.7771 17.4031L21.7771 14.19C21.7771 13.901 22.0219 13.6667 22.324 13.6667C22.626 13.6667 22.8708 13.901 22.8708 14.19L22.8708 17.3883Z"
            fill="black" fill-opacity="0.2" />
        <path
            d="M22.8708 17.3883C22.7052 17.3499 22.5322 17.3295 22.3542 17.3295C22.1545 17.3295 21.961 17.3552 21.7771 17.4031L21.7771 14.19C21.7771 13.901 22.0219 13.6667 22.324 13.6667C22.626 13.6667 22.8708 13.901 22.8708 14.19L22.8708 17.3883Z"
            fill="black" fill-opacity="0.2" />
        <path
            d="M22.8708 17.3883C22.7052 17.3499 22.5322 17.3295 22.3542 17.3295C22.1545 17.3295 21.961 17.3552 21.7771 17.4031L21.7771 14.19C21.7771 13.901 22.0219 13.6667 22.324 13.6667C22.626 13.6667 22.8708 13.901 22.8708 14.19L22.8708 17.3883Z"
            fill="black" fill-opacity="0.2" />
        <path
            d="M22.8708 17.3883C22.7052 17.3499 22.5322 17.3295 22.3542 17.3295C22.1545 17.3295 21.961 17.3552 21.7771 17.4031L21.7771 14.19C21.7771 13.901 22.0219 13.6667 22.324 13.6667C22.626 13.6667 22.8708 13.901 22.8708 14.19L22.8708 17.3883Z"
            fill="black" fill-opacity="0.2" />
        <path
            d="M22.8708 17.3883C22.7052 17.3499 22.5322 17.3295 22.3542 17.3295C22.1545 17.3295 21.961 17.3552 21.7771 17.4031L21.7771 14.19C21.7771 13.901 22.0219 13.6667 22.324 13.6667C22.626 13.6667 22.8708 13.901 22.8708 14.19L22.8708 17.3883Z"
            fill="black" fill-opacity="0.2" />
        <path
            d="M21.7771 21.442C21.961 21.49 22.1545 21.5156 22.3542 21.5156C22.5322 21.5156 22.7052 21.4952 22.8708 21.4569L22.8708 28.1435C22.8708 28.4325 22.626 28.6667 22.324 28.6667C22.0219 28.6667 21.7771 28.4325 21.7771 28.1435L21.7771 21.442Z"
            fill="#191C20" />
        <path
            d="M21.7771 21.442C21.961 21.49 22.1545 21.5156 22.3542 21.5156C22.5322 21.5156 22.7052 21.4952 22.8708 21.4569L22.8708 28.1435C22.8708 28.4325 22.626 28.6667 22.324 28.6667C22.0219 28.6667 21.7771 28.4325 21.7771 28.1435L21.7771 21.442Z"
            fill="black" fill-opacity="0.2" />
        <path
            d="M21.7771 21.442C21.961 21.49 22.1545 21.5156 22.3542 21.5156C22.5322 21.5156 22.7052 21.4952 22.8708 21.4569L22.8708 28.1435C22.8708 28.4325 22.626 28.6667 22.324 28.6667C22.0219 28.6667 21.7771 28.4325 21.7771 28.1435L21.7771 21.442Z"
            fill="black" fill-opacity="0.2" />
        <path
            d="M21.7771 21.442C21.961 21.49 22.1545 21.5156 22.3542 21.5156C22.5322 21.5156 22.7052 21.4952 22.8708 21.4569L22.8708 28.1435C22.8708 28.4325 22.626 28.6667 22.324 28.6667C22.0219 28.6667 21.7771 28.4325 21.7771 28.1435L21.7771 21.442Z"
            fill="black" fill-opacity="0.2" />
        <path
            d="M21.7771 21.442C21.961 21.49 22.1545 21.5156 22.3542 21.5156C22.5322 21.5156 22.7052 21.4952 22.8708 21.4569L22.8708 28.1435C22.8708 28.4325 22.626 28.6667 22.324 28.6667C22.0219 28.6667 21.7771 28.4325 21.7771 28.1435L21.7771 21.442Z"
            fill="black" fill-opacity="0.2" />
        <path
            d="M21.7771 21.442C21.961 21.49 22.1545 21.5156 22.3542 21.5156C22.5322 21.5156 22.7052 21.4952 22.8708 21.4569L22.8708 28.1435C22.8708 28.4325 22.626 28.6667 22.324 28.6667C22.0219 28.6667 21.7771 28.4325 21.7771 28.1435L21.7771 21.442Z"
            fill="black" fill-opacity="0.2" />
        <path
            d="M21.7771 21.442C21.961 21.49 22.1545 21.5156 22.3542 21.5156C22.5322 21.5156 22.7052 21.4952 22.8708 21.4569L22.8708 28.1435C22.8708 28.4325 22.626 28.6667 22.324 28.6667C22.0219 28.6667 21.7771 28.4325 21.7771 28.1435L21.7771 21.442Z"
            fill="black" fill-opacity="0.2" />
        <path
            d="M29.0688 24.9303V28.1435C29.0688 28.4325 29.3136 28.6667 29.6156 28.6667C29.9177 28.6667 30.1625 28.4325 30.1625 28.1435V24.9452C29.9969 24.9836 29.8239 25.004 29.6459 25.004C29.4461 25.004 29.2526 24.9783 29.0688 24.9303Z"
            fill="#191C20" />
        <path
            d="M29.0688 24.9303V28.1435C29.0688 28.4325 29.3136 28.6667 29.6156 28.6667C29.9177 28.6667 30.1625 28.4325 30.1625 28.1435V24.9452C29.9969 24.9836 29.8239 25.004 29.6459 25.004C29.4461 25.004 29.2526 24.9783 29.0688 24.9303Z"
            fill="black" fill-opacity="0.2" />
        <path
            d="M29.0688 24.9303V28.1435C29.0688 28.4325 29.3136 28.6667 29.6156 28.6667C29.9177 28.6667 30.1625 28.4325 30.1625 28.1435V24.9452C29.9969 24.9836 29.8239 25.004 29.6459 25.004C29.4461 25.004 29.2526 24.9783 29.0688 24.9303Z"
            fill="black" fill-opacity="0.2" />
        <path
            d="M29.0688 24.9303V28.1435C29.0688 28.4325 29.3136 28.6667 29.6156 28.6667C29.9177 28.6667 30.1625 28.4325 30.1625 28.1435V24.9452C29.9969 24.9836 29.8239 25.004 29.6459 25.004C29.4461 25.004 29.2526 24.9783 29.0688 24.9303Z"
            fill="black" fill-opacity="0.2" />
        <path
            d="M29.0688 24.9303V28.1435C29.0688 28.4325 29.3136 28.6667 29.6156 28.6667C29.9177 28.6667 30.1625 28.4325 30.1625 28.1435V24.9452C29.9969 24.9836 29.8239 25.004 29.6459 25.004C29.4461 25.004 29.2526 24.9783 29.0688 24.9303Z"
            fill="black" fill-opacity="0.2" />
        <path
            d="M29.0688 24.9303V28.1435C29.0688 28.4325 29.3136 28.6667 29.6156 28.6667C29.9177 28.6667 30.1625 28.4325 30.1625 28.1435V24.9452C29.9969 24.9836 29.8239 25.004 29.6459 25.004C29.4461 25.004 29.2526 24.9783 29.0688 24.9303Z"
            fill="black" fill-opacity="0.2" />
        <path
            d="M29.0688 24.9303V28.1435C29.0688 28.4325 29.3136 28.6667 29.6156 28.6667C29.9177 28.6667 30.1625 28.4325 30.1625 28.1435V24.9452C29.9969 24.9836 29.8239 25.004 29.6459 25.004C29.4461 25.004 29.2526 24.9783 29.0688 24.9303Z"
            fill="black" fill-opacity="0.2" />
        <path
            d="M30.1625 20.8766V14.19C30.1625 13.901 29.9177 13.6667 29.6156 13.6667C29.3136 13.6667 29.0688 13.901 29.0688 14.19V20.8915C29.2526 20.8435 29.4461 20.8179 29.6459 20.8179C29.8239 20.8179 29.9969 20.8382 30.1625 20.8766Z"
            fill="#191C20" />
        <path
            d="M30.1625 20.8766V14.19C30.1625 13.901 29.9177 13.6667 29.6156 13.6667C29.3136 13.6667 29.0688 13.901 29.0688 14.19V20.8915C29.2526 20.8435 29.4461 20.8179 29.6459 20.8179C29.8239 20.8179 29.9969 20.8382 30.1625 20.8766Z"
            fill="black" fill-opacity="0.2" />
        <path
            d="M30.1625 20.8766V14.19C30.1625 13.901 29.9177 13.6667 29.6156 13.6667C29.3136 13.6667 29.0688 13.901 29.0688 14.19V20.8915C29.2526 20.8435 29.4461 20.8179 29.6459 20.8179C29.8239 20.8179 29.9969 20.8382 30.1625 20.8766Z"
            fill="black" fill-opacity="0.2" />
        <path
            d="M30.1625 20.8766V14.19C30.1625 13.901 29.9177 13.6667 29.6156 13.6667C29.3136 13.6667 29.0688 13.901 29.0688 14.19V20.8915C29.2526 20.8435 29.4461 20.8179 29.6459 20.8179C29.8239 20.8179 29.9969 20.8382 30.1625 20.8766Z"
            fill="black" fill-opacity="0.2" />
        <path
            d="M30.1625 20.8766V14.19C30.1625 13.901 29.9177 13.6667 29.6156 13.6667C29.3136 13.6667 29.0688 13.901 29.0688 14.19V20.8915C29.2526 20.8435 29.4461 20.8179 29.6459 20.8179C29.8239 20.8179 29.9969 20.8382 30.1625 20.8766Z"
            fill="black" fill-opacity="0.2" />
        <path
            d="M30.1625 20.8766V14.19C30.1625 13.901 29.9177 13.6667 29.6156 13.6667C29.3136 13.6667 29.0688 13.901 29.0688 14.19V20.8915C29.2526 20.8435 29.4461 20.8179 29.6459 20.8179C29.8239 20.8179 29.9969 20.8382 30.1625 20.8766Z"
            fill="black" fill-opacity="0.2" />
        <path
            d="M30.1625 20.8766V14.19C30.1625 13.901 29.9177 13.6667 29.6156 13.6667C29.3136 13.6667 29.0688 13.901 29.0688 14.19V20.8915C29.2526 20.8435 29.4461 20.8179 29.6459 20.8179C29.8239 20.8179 29.9969 20.8382 30.1625 20.8766Z"
            fill="black" fill-opacity="0.2" />
    </g>
    <path
        d="M50.776 17.27V18.572H46.646V21.442H49.866V22.744H46.646V27H45.05V17.27H50.776ZM53.0671 18.264C52.7777 18.264 52.5351 18.166 52.3391 17.97C52.1431 17.774 52.0451 17.5313 52.0451 17.242C52.0451 16.9527 52.1431 16.71 52.3391 16.514C52.5351 16.318 52.7777 16.22 53.0671 16.22C53.3471 16.22 53.5851 16.318 53.7811 16.514C53.9771 16.71 54.0751 16.9527 54.0751 17.242C54.0751 17.5313 53.9771 17.774 53.7811 17.97C53.5851 18.166 53.3471 18.264 53.0671 18.264ZM53.8511 19.286V27H52.2551V19.286H53.8511ZM57.5425 16.64V27H55.9465V16.64H57.5425ZM61.4999 20.588V24.858C61.4999 25.1473 61.5652 25.3573 61.6959 25.488C61.8359 25.6093 62.0692 25.67 62.3959 25.67H63.3759V27H62.1159C61.3972 27 60.8466 26.832 60.4639 26.496C60.0812 26.16 59.8899 25.614 59.8899 24.858V20.588H58.9799V19.286H59.8899V17.368H61.4999V19.286H63.3759V20.588H61.4999ZM71.9169 22.954C71.9169 23.2433 71.8982 23.5047 71.8609 23.738H65.9669C66.0135 24.354 66.2422 24.8487 66.6529 25.222C67.0635 25.5953 67.5675 25.782 68.1649 25.782C69.0235 25.782 69.6302 25.4227 69.9849 24.704H71.7069C71.4735 25.4133 71.0489 25.9967 70.4329 26.454C69.8262 26.902 69.0702 27.126 68.1649 27.126C67.4275 27.126 66.7649 26.9627 66.1769 26.636C65.5982 26.3 65.1409 25.8333 64.8049 25.236C64.4782 24.6293 64.3149 23.9293 64.3149 23.136C64.3149 22.3427 64.4735 21.6473 64.7909 21.05C65.1175 20.4433 65.5702 19.9767 66.1489 19.65C66.7369 19.3233 67.4089 19.16 68.1649 19.16C68.8929 19.16 69.5415 19.3187 70.1109 19.636C70.6802 19.9533 71.1235 20.4013 71.4409 20.98C71.7582 21.5493 71.9169 22.2073 71.9169 22.954ZM70.2509 22.45C70.2415 21.862 70.0315 21.3907 69.6209 21.036C69.2102 20.6813 68.7015 20.504 68.0949 20.504C67.5442 20.504 67.0729 20.6813 66.6809 21.036C66.2889 21.3813 66.0555 21.8527 65.9809 22.45H70.2509ZM75.0835 20.406C75.3168 20.014 75.6248 19.7107 76.0075 19.496C76.3995 19.272 76.8615 19.16 77.3935 19.16V20.812H76.9875C76.3622 20.812 75.8862 20.9707 75.5595 21.288C75.2422 21.6053 75.0835 22.156 75.0835 22.94V27H73.4875V19.286H75.0835V20.406Z"
        fill="#191C20" />
    <path
        d="M50.776 17.27V18.572H46.646V21.442H49.866V22.744H46.646V27H45.05V17.27H50.776ZM53.0671 18.264C52.7777 18.264 52.5351 18.166 52.3391 17.97C52.1431 17.774 52.0451 17.5313 52.0451 17.242C52.0451 16.9527 52.1431 16.71 52.3391 16.514C52.5351 16.318 52.7777 16.22 53.0671 16.22C53.3471 16.22 53.5851 16.318 53.7811 16.514C53.9771 16.71 54.0751 16.9527 54.0751 17.242C54.0751 17.5313 53.9771 17.774 53.7811 17.97C53.5851 18.166 53.3471 18.264 53.0671 18.264ZM53.8511 19.286V27H52.2551V19.286H53.8511ZM57.5425 16.64V27H55.9465V16.64H57.5425ZM61.4999 20.588V24.858C61.4999 25.1473 61.5652 25.3573 61.6959 25.488C61.8359 25.6093 62.0692 25.67 62.3959 25.67H63.3759V27H62.1159C61.3972 27 60.8466 26.832 60.4639 26.496C60.0812 26.16 59.8899 25.614 59.8899 24.858V20.588H58.9799V19.286H59.8899V17.368H61.4999V19.286H63.3759V20.588H61.4999ZM71.9169 22.954C71.9169 23.2433 71.8982 23.5047 71.8609 23.738H65.9669C66.0135 24.354 66.2422 24.8487 66.6529 25.222C67.0635 25.5953 67.5675 25.782 68.1649 25.782C69.0235 25.782 69.6302 25.4227 69.9849 24.704H71.7069C71.4735 25.4133 71.0489 25.9967 70.4329 26.454C69.8262 26.902 69.0702 27.126 68.1649 27.126C67.4275 27.126 66.7649 26.9627 66.1769 26.636C65.5982 26.3 65.1409 25.8333 64.8049 25.236C64.4782 24.6293 64.3149 23.9293 64.3149 23.136C64.3149 22.3427 64.4735 21.6473 64.7909 21.05C65.1175 20.4433 65.5702 19.9767 66.1489 19.65C66.7369 19.3233 67.4089 19.16 68.1649 19.16C68.8929 19.16 69.5415 19.3187 70.1109 19.636C70.6802 19.9533 71.1235 20.4013 71.4409 20.98C71.7582 21.5493 71.9169 22.2073 71.9169 22.954ZM70.2509 22.45C70.2415 21.862 70.0315 21.3907 69.6209 21.036C69.2102 20.6813 68.7015 20.504 68.0949 20.504C67.5442 20.504 67.0729 20.6813 66.6809 21.036C66.2889 21.3813 66.0555 21.8527 65.9809 22.45H70.2509ZM75.0835 20.406C75.3168 20.014 75.6248 19.7107 76.0075 19.496C76.3995 19.272 76.8615 19.16 77.3935 19.16V20.812H76.9875C76.3622 20.812 75.8862 20.9707 75.5595 21.288C75.2422 21.6053 75.0835 22.156 75.0835 22.94V27H73.4875V19.286H75.0835V20.406Z"
        fill="black" fill-opacity="0.2" />
    <path
        d="M50.776 17.27V18.572H46.646V21.442H49.866V22.744H46.646V27H45.05V17.27H50.776ZM53.0671 18.264C52.7777 18.264 52.5351 18.166 52.3391 17.97C52.1431 17.774 52.0451 17.5313 52.0451 17.242C52.0451 16.9527 52.1431 16.71 52.3391 16.514C52.5351 16.318 52.7777 16.22 53.0671 16.22C53.3471 16.22 53.5851 16.318 53.7811 16.514C53.9771 16.71 54.0751 16.9527 54.0751 17.242C54.0751 17.5313 53.9771 17.774 53.7811 17.97C53.5851 18.166 53.3471 18.264 53.0671 18.264ZM53.8511 19.286V27H52.2551V19.286H53.8511ZM57.5425 16.64V27H55.9465V16.64H57.5425ZM61.4999 20.588V24.858C61.4999 25.1473 61.5652 25.3573 61.6959 25.488C61.8359 25.6093 62.0692 25.67 62.3959 25.67H63.3759V27H62.1159C61.3972 27 60.8466 26.832 60.4639 26.496C60.0812 26.16 59.8899 25.614 59.8899 24.858V20.588H58.9799V19.286H59.8899V17.368H61.4999V19.286H63.3759V20.588H61.4999ZM71.9169 22.954C71.9169 23.2433 71.8982 23.5047 71.8609 23.738H65.9669C66.0135 24.354 66.2422 24.8487 66.6529 25.222C67.0635 25.5953 67.5675 25.782 68.1649 25.782C69.0235 25.782 69.6302 25.4227 69.9849 24.704H71.7069C71.4735 25.4133 71.0489 25.9967 70.4329 26.454C69.8262 26.902 69.0702 27.126 68.1649 27.126C67.4275 27.126 66.7649 26.9627 66.1769 26.636C65.5982 26.3 65.1409 25.8333 64.8049 25.236C64.4782 24.6293 64.3149 23.9293 64.3149 23.136C64.3149 22.3427 64.4735 21.6473 64.7909 21.05C65.1175 20.4433 65.5702 19.9767 66.1489 19.65C66.7369 19.3233 67.4089 19.16 68.1649 19.16C68.8929 19.16 69.5415 19.3187 70.1109 19.636C70.6802 19.9533 71.1235 20.4013 71.4409 20.98C71.7582 21.5493 71.9169 22.2073 71.9169 22.954ZM70.2509 22.45C70.2415 21.862 70.0315 21.3907 69.6209 21.036C69.2102 20.6813 68.7015 20.504 68.0949 20.504C67.5442 20.504 67.0729 20.6813 66.6809 21.036C66.2889 21.3813 66.0555 21.8527 65.9809 22.45H70.2509ZM75.0835 20.406C75.3168 20.014 75.6248 19.7107 76.0075 19.496C76.3995 19.272 76.8615 19.16 77.3935 19.16V20.812H76.9875C76.3622 20.812 75.8862 20.9707 75.5595 21.288C75.2422 21.6053 75.0835 22.156 75.0835 22.94V27H73.4875V19.286H75.0835V20.406Z"
        fill="black" fill-opacity="0.2" />
    <path
        d="M50.776 17.27V18.572H46.646V21.442H49.866V22.744H46.646V27H45.05V17.27H50.776ZM53.0671 18.264C52.7777 18.264 52.5351 18.166 52.3391 17.97C52.1431 17.774 52.0451 17.5313 52.0451 17.242C52.0451 16.9527 52.1431 16.71 52.3391 16.514C52.5351 16.318 52.7777 16.22 53.0671 16.22C53.3471 16.22 53.5851 16.318 53.7811 16.514C53.9771 16.71 54.0751 16.9527 54.0751 17.242C54.0751 17.5313 53.9771 17.774 53.7811 17.97C53.5851 18.166 53.3471 18.264 53.0671 18.264ZM53.8511 19.286V27H52.2551V19.286H53.8511ZM57.5425 16.64V27H55.9465V16.64H57.5425ZM61.4999 20.588V24.858C61.4999 25.1473 61.5652 25.3573 61.6959 25.488C61.8359 25.6093 62.0692 25.67 62.3959 25.67H63.3759V27H62.1159C61.3972 27 60.8466 26.832 60.4639 26.496C60.0812 26.16 59.8899 25.614 59.8899 24.858V20.588H58.9799V19.286H59.8899V17.368H61.4999V19.286H63.3759V20.588H61.4999ZM71.9169 22.954C71.9169 23.2433 71.8982 23.5047 71.8609 23.738H65.9669C66.0135 24.354 66.2422 24.8487 66.6529 25.222C67.0635 25.5953 67.5675 25.782 68.1649 25.782C69.0235 25.782 69.6302 25.4227 69.9849 24.704H71.7069C71.4735 25.4133 71.0489 25.9967 70.4329 26.454C69.8262 26.902 69.0702 27.126 68.1649 27.126C67.4275 27.126 66.7649 26.9627 66.1769 26.636C65.5982 26.3 65.1409 25.8333 64.8049 25.236C64.4782 24.6293 64.3149 23.9293 64.3149 23.136C64.3149 22.3427 64.4735 21.6473 64.7909 21.05C65.1175 20.4433 65.5702 19.9767 66.1489 19.65C66.7369 19.3233 67.4089 19.16 68.1649 19.16C68.8929 19.16 69.5415 19.3187 70.1109 19.636C70.6802 19.9533 71.1235 20.4013 71.4409 20.98C71.7582 21.5493 71.9169 22.2073 71.9169 22.954ZM70.2509 22.45C70.2415 21.862 70.0315 21.3907 69.6209 21.036C69.2102 20.6813 68.7015 20.504 68.0949 20.504C67.5442 20.504 67.0729 20.6813 66.6809 21.036C66.2889 21.3813 66.0555 21.8527 65.9809 22.45H70.2509ZM75.0835 20.406C75.3168 20.014 75.6248 19.7107 76.0075 19.496C76.3995 19.272 76.8615 19.16 77.3935 19.16V20.812H76.9875C76.3622 20.812 75.8862 20.9707 75.5595 21.288C75.2422 21.6053 75.0835 22.156 75.0835 22.94V27H73.4875V19.286H75.0835V20.406Z"
        fill="black" fill-opacity="0.2" />
    <path
        d="M50.776 17.27V18.572H46.646V21.442H49.866V22.744H46.646V27H45.05V17.27H50.776ZM53.0671 18.264C52.7777 18.264 52.5351 18.166 52.3391 17.97C52.1431 17.774 52.0451 17.5313 52.0451 17.242C52.0451 16.9527 52.1431 16.71 52.3391 16.514C52.5351 16.318 52.7777 16.22 53.0671 16.22C53.3471 16.22 53.5851 16.318 53.7811 16.514C53.9771 16.71 54.0751 16.9527 54.0751 17.242C54.0751 17.5313 53.9771 17.774 53.7811 17.97C53.5851 18.166 53.3471 18.264 53.0671 18.264ZM53.8511 19.286V27H52.2551V19.286H53.8511ZM57.5425 16.64V27H55.9465V16.64H57.5425ZM61.4999 20.588V24.858C61.4999 25.1473 61.5652 25.3573 61.6959 25.488C61.8359 25.6093 62.0692 25.67 62.3959 25.67H63.3759V27H62.1159C61.3972 27 60.8466 26.832 60.4639 26.496C60.0812 26.16 59.8899 25.614 59.8899 24.858V20.588H58.9799V19.286H59.8899V17.368H61.4999V19.286H63.3759V20.588H61.4999ZM71.9169 22.954C71.9169 23.2433 71.8982 23.5047 71.8609 23.738H65.9669C66.0135 24.354 66.2422 24.8487 66.6529 25.222C67.0635 25.5953 67.5675 25.782 68.1649 25.782C69.0235 25.782 69.6302 25.4227 69.9849 24.704H71.7069C71.4735 25.4133 71.0489 25.9967 70.4329 26.454C69.8262 26.902 69.0702 27.126 68.1649 27.126C67.4275 27.126 66.7649 26.9627 66.1769 26.636C65.5982 26.3 65.1409 25.8333 64.8049 25.236C64.4782 24.6293 64.3149 23.9293 64.3149 23.136C64.3149 22.3427 64.4735 21.6473 64.7909 21.05C65.1175 20.4433 65.5702 19.9767 66.1489 19.65C66.7369 19.3233 67.4089 19.16 68.1649 19.16C68.8929 19.16 69.5415 19.3187 70.1109 19.636C70.6802 19.9533 71.1235 20.4013 71.4409 20.98C71.7582 21.5493 71.9169 22.2073 71.9169 22.954ZM70.2509 22.45C70.2415 21.862 70.0315 21.3907 69.6209 21.036C69.2102 20.6813 68.7015 20.504 68.0949 20.504C67.5442 20.504 67.0729 20.6813 66.6809 21.036C66.2889 21.3813 66.0555 21.8527 65.9809 22.45H70.2509ZM75.0835 20.406C75.3168 20.014 75.6248 19.7107 76.0075 19.496C76.3995 19.272 76.8615 19.16 77.3935 19.16V20.812H76.9875C76.3622 20.812 75.8862 20.9707 75.5595 21.288C75.2422 21.6053 75.0835 22.156 75.0835 22.94V27H73.4875V19.286H75.0835V20.406Z"
        fill="black" fill-opacity="0.2" />
    <path
        d="M50.776 17.27V18.572H46.646V21.442H49.866V22.744H46.646V27H45.05V17.27H50.776ZM53.0671 18.264C52.7777 18.264 52.5351 18.166 52.3391 17.97C52.1431 17.774 52.0451 17.5313 52.0451 17.242C52.0451 16.9527 52.1431 16.71 52.3391 16.514C52.5351 16.318 52.7777 16.22 53.0671 16.22C53.3471 16.22 53.5851 16.318 53.7811 16.514C53.9771 16.71 54.0751 16.9527 54.0751 17.242C54.0751 17.5313 53.9771 17.774 53.7811 17.97C53.5851 18.166 53.3471 18.264 53.0671 18.264ZM53.8511 19.286V27H52.2551V19.286H53.8511ZM57.5425 16.64V27H55.9465V16.64H57.5425ZM61.4999 20.588V24.858C61.4999 25.1473 61.5652 25.3573 61.6959 25.488C61.8359 25.6093 62.0692 25.67 62.3959 25.67H63.3759V27H62.1159C61.3972 27 60.8466 26.832 60.4639 26.496C60.0812 26.16 59.8899 25.614 59.8899 24.858V20.588H58.9799V19.286H59.8899V17.368H61.4999V19.286H63.3759V20.588H61.4999ZM71.9169 22.954C71.9169 23.2433 71.8982 23.5047 71.8609 23.738H65.9669C66.0135 24.354 66.2422 24.8487 66.6529 25.222C67.0635 25.5953 67.5675 25.782 68.1649 25.782C69.0235 25.782 69.6302 25.4227 69.9849 24.704H71.7069C71.4735 25.4133 71.0489 25.9967 70.4329 26.454C69.8262 26.902 69.0702 27.126 68.1649 27.126C67.4275 27.126 66.7649 26.9627 66.1769 26.636C65.5982 26.3 65.1409 25.8333 64.8049 25.236C64.4782 24.6293 64.3149 23.9293 64.3149 23.136C64.3149 22.3427 64.4735 21.6473 64.7909 21.05C65.1175 20.4433 65.5702 19.9767 66.1489 19.65C66.7369 19.3233 67.4089 19.16 68.1649 19.16C68.8929 19.16 69.5415 19.3187 70.1109 19.636C70.6802 19.9533 71.1235 20.4013 71.4409 20.98C71.7582 21.5493 71.9169 22.2073 71.9169 22.954ZM70.2509 22.45C70.2415 21.862 70.0315 21.3907 69.6209 21.036C69.2102 20.6813 68.7015 20.504 68.0949 20.504C67.5442 20.504 67.0729 20.6813 66.6809 21.036C66.2889 21.3813 66.0555 21.8527 65.9809 22.45H70.2509ZM75.0835 20.406C75.3168 20.014 75.6248 19.7107 76.0075 19.496C76.3995 19.272 76.8615 19.16 77.3935 19.16V20.812H76.9875C76.3622 20.812 75.8862 20.9707 75.5595 21.288C75.2422 21.6053 75.0835 22.156 75.0835 22.94V27H73.4875V19.286H75.0835V20.406Z"
        fill="black" fill-opacity="0.2" />
    <path
        d="M50.776 17.27V18.572H46.646V21.442H49.866V22.744H46.646V27H45.05V17.27H50.776ZM53.0671 18.264C52.7777 18.264 52.5351 18.166 52.3391 17.97C52.1431 17.774 52.0451 17.5313 52.0451 17.242C52.0451 16.9527 52.1431 16.71 52.3391 16.514C52.5351 16.318 52.7777 16.22 53.0671 16.22C53.3471 16.22 53.5851 16.318 53.7811 16.514C53.9771 16.71 54.0751 16.9527 54.0751 17.242C54.0751 17.5313 53.9771 17.774 53.7811 17.97C53.5851 18.166 53.3471 18.264 53.0671 18.264ZM53.8511 19.286V27H52.2551V19.286H53.8511ZM57.5425 16.64V27H55.9465V16.64H57.5425ZM61.4999 20.588V24.858C61.4999 25.1473 61.5652 25.3573 61.6959 25.488C61.8359 25.6093 62.0692 25.67 62.3959 25.67H63.3759V27H62.1159C61.3972 27 60.8466 26.832 60.4639 26.496C60.0812 26.16 59.8899 25.614 59.8899 24.858V20.588H58.9799V19.286H59.8899V17.368H61.4999V19.286H63.3759V20.588H61.4999ZM71.9169 22.954C71.9169 23.2433 71.8982 23.5047 71.8609 23.738H65.9669C66.0135 24.354 66.2422 24.8487 66.6529 25.222C67.0635 25.5953 67.5675 25.782 68.1649 25.782C69.0235 25.782 69.6302 25.4227 69.9849 24.704H71.7069C71.4735 25.4133 71.0489 25.9967 70.4329 26.454C69.8262 26.902 69.0702 27.126 68.1649 27.126C67.4275 27.126 66.7649 26.9627 66.1769 26.636C65.5982 26.3 65.1409 25.8333 64.8049 25.236C64.4782 24.6293 64.3149 23.9293 64.3149 23.136C64.3149 22.3427 64.4735 21.6473 64.7909 21.05C65.1175 20.4433 65.5702 19.9767 66.1489 19.65C66.7369 19.3233 67.4089 19.16 68.1649 19.16C68.8929 19.16 69.5415 19.3187 70.1109 19.636C70.6802 19.9533 71.1235 20.4013 71.4409 20.98C71.7582 21.5493 71.9169 22.2073 71.9169 22.954ZM70.2509 22.45C70.2415 21.862 70.0315 21.3907 69.6209 21.036C69.2102 20.6813 68.7015 20.504 68.0949 20.504C67.5442 20.504 67.0729 20.6813 66.6809 21.036C66.2889 21.3813 66.0555 21.8527 65.9809 22.45H70.2509ZM75.0835 20.406C75.3168 20.014 75.6248 19.7107 76.0075 19.496C76.3995 19.272 76.8615 19.16 77.3935 19.16V20.812H76.9875C76.3622 20.812 75.8862 20.9707 75.5595 21.288C75.2422 21.6053 75.0835 22.156 75.0835 22.94V27H73.4875V19.286H75.0835V20.406Z"
        fill="black" fill-opacity="0.2" />
</svg>