<svg width="40" height="40" viewBox="0 0 40 40" fill="none" xmlns="http://www.w3.org/2000/svg">
<path opacity="0.5" d="M28 23.5995V18.1991C28 15.6533 28 14.3804 27.2678 13.5895C26.6274 12.8979 25.6459 12.8111 23.8333 12.8002H17.1667C15.3541 12.8111 14.3726 12.8979 13.7322 13.5895C13 14.3804 13 15.6533 13 18.1991V23.5995C13 26.1453 13 27.4182 13.7322 28.2091C14.4645 29 15.643 29 18 29H23C25.357 29 26.5355 29 27.2678 28.2091C28 27.4182 28 26.1453 28 23.5995Z" fill="#7F8596"/>
<path d="M17.166 12.3501C17.166 11.6045 17.7257 11 18.416 11H22.5827C23.273 11 23.8327 11.6045 23.8327 12.3501V13.2502C23.8327 13.9958 23.273 14.6003 22.5827 14.6003H18.416C17.7257 14.6003 17.166 13.9958 17.166 13.2502V12.3501Z" fill="#7F8596"/>
<path fill-rule="evenodd" clip-rule="evenodd" d="M15.709 18.6506C15.709 18.2778 15.9888 17.9756 16.334 17.9756H16.7507C17.0958 17.9756 17.3757 18.2778 17.3757 18.6506C17.3757 19.0235 17.0958 19.3257 16.7507 19.3257H16.334C15.9888 19.3257 15.709 19.0235 15.709 18.6506ZM18.6257 18.6506C18.6257 18.2778 18.9055 17.9756 19.2507 17.9756H24.6673C25.0125 17.9756 25.2923 18.2778 25.2923 18.6506C25.2923 19.0235 25.0125 19.3257 24.6673 19.3257H19.2507C18.9055 19.3257 18.6257 19.0235 18.6257 18.6506ZM15.709 21.8009C15.709 21.4281 15.9888 21.1259 16.334 21.1259H16.7507C17.0958 21.1259 17.3757 21.4281 17.3757 21.8009C17.3757 22.1737 17.0958 22.476 16.7507 22.476H16.334C15.9888 22.476 15.709 22.1737 15.709 21.8009ZM18.6257 21.8009C18.6257 21.4281 18.9055 21.1259 19.2507 21.1259H24.6673C25.0125 21.1259 25.2923 21.4281 25.2923 21.8009C25.2923 22.1737 25.0125 22.476 24.6673 22.476H19.2507C18.9055 22.476 18.6257 22.1737 18.6257 21.8009ZM15.709 24.9512C15.709 24.5784 15.9888 24.2761 16.334 24.2761H16.7507C17.0958 24.2761 17.3757 24.5784 17.3757 24.9512C17.3757 25.324 17.0958 25.6263 16.7507 25.6263H16.334C15.9888 25.6263 15.709 25.324 15.709 24.9512ZM18.6257 24.9512C18.6257 24.5784 18.9055 24.2761 19.2507 24.2761H24.6673C25.0125 24.2761 25.2923 24.5784 25.2923 24.9512C25.2923 25.324 25.0125 25.6263 24.6673 25.6263H19.2507C18.9055 25.6263 18.6257 25.324 18.6257 24.9512Z" fill="#7F8596"/>
</svg>
