<svg width="40" height="40" viewBox="0 0 40 40" fill="none" xmlns="http://www.w3.org/2000/svg">
<path fill-rule="evenodd" clip-rule="evenodd" d="M28.3064 18.8448L27.8307 20.5836C27.2753 22.6134 26.9976 23.6283 26.3681 24.2865C25.871 24.8063 25.2277 25.17 24.5196 25.3317C24.4311 25.3519 24.3412 25.3675 24.2492 25.3786C23.4081 25.4802 22.3819 25.2109 20.5137 24.7206C18.441 24.1768 17.4046 23.9048 16.7325 23.2883C16.2017 22.8015 15.8303 22.1716 15.6652 21.4781C15.4561 20.5998 15.7338 19.5849 16.2892 17.5551L16.765 15.8162C16.8448 15.5244 16.919 15.2533 16.9892 15.0015C17.4075 13.5019 17.6886 12.6769 18.2276 12.1133C18.7246 11.5936 19.3679 11.2299 20.0761 11.0682C20.9729 10.8634 22.0093 11.1353 24.082 11.6792C26.1547 12.2231 27.191 12.495 27.8632 13.1115C28.3939 13.5983 28.7653 14.2283 28.9304 14.9218C29.1395 15.8001 28.8618 16.815 28.3064 18.8448ZM19.3203 18.0261C19.4188 17.6659 19.7968 17.4522 20.1646 17.5487L24.6036 18.7135C24.9713 18.81 25.1896 19.1802 25.091 19.5403C24.9925 19.9005 24.6145 20.1142 24.2468 20.0177L19.8077 18.8529C19.44 18.7564 19.2218 18.3862 19.3203 18.0261ZM18.6063 20.6341C18.7048 20.274 19.0828 20.0602 19.4505 20.1567L22.114 20.8556C22.4817 20.9521 22.6999 21.3223 22.6014 21.6824C22.5029 22.0425 22.1249 22.2563 21.7571 22.1598L19.0937 21.4609C18.726 21.3644 18.5077 20.9942 18.6063 20.6341Z" fill="#7F8596"/>
<path opacity="0.5" d="M24.2491 25.3785C24.0574 25.9531 23.7205 26.4729 23.2675 26.8884C22.5954 27.5049 21.559 27.7768 19.4863 28.3207C17.4136 28.8646 16.3773 29.1365 15.4804 28.9317C14.7723 28.77 14.129 28.4063 13.6319 27.8866C13.0024 27.2284 12.7247 26.2135 12.1693 24.1837L11.6936 22.4448C11.1382 20.415 10.8605 19.4001 11.0696 18.5218C11.2347 17.8283 11.6061 17.1984 12.1368 16.7116C12.809 16.0951 13.8453 15.8231 15.918 15.2793C16.3102 15.1764 16.6652 15.0832 16.9892 15.0012C16.9892 15.0013 16.9892 15.0011 16.9892 15.0012C16.919 15.253 16.8448 15.5243 16.765 15.8162L16.2892 17.555C15.7338 19.5848 15.4561 20.5997 15.6652 21.478C15.8303 22.1715 16.2017 22.8015 16.7325 23.2883C17.4046 23.9048 18.441 24.1767 20.5137 24.7206C22.3818 25.2108 23.4081 25.4801 24.2491 25.3785Z" fill="#7F8596"/>
</svg>
