<svg width="40" height="40" viewBox="0 0 40 40" fill="none" xmlns="http://www.w3.org/2000/svg">
<path d="M21.9992 26.3853C23.2575 26.3533 24.1409 26.2521 24.7993 25.9322V27.2C24.7993 27.6419 24.4411 28 23.9992 28H22.7992C22.3574 28 21.9992 27.6419 21.9992 27.2V26.3853Z" fill="#7F8596"/>
<path d="M15.1992 25.9321C15.8575 26.2521 16.741 26.3533 17.9992 26.3853V27.2C17.9992 27.6419 17.6411 28 17.1992 28H15.9992C15.5574 28 15.1992 27.6419 15.1992 27.2V25.9321Z" fill="#7F8596"/>
<path opacity="0.5" fill-rule="evenodd" clip-rule="evenodd" d="M14.5371 12.9373C15.4744 12 16.9828 12 19.9998 12C23.0168 12 24.5253 12 25.4626 12.9373C26.3131 13.7877 26.3918 15.1086 26.3991 17.6L26.3999 20.8C26.3926 23.2915 26.3131 24.6123 25.4626 25.4628C25.2689 25.6565 25.0507 25.8102 24.7999 25.9322C24.1416 26.2521 23.2581 26.3532 21.9999 26.3852C21.4182 26.4 20.7565 26.4001 19.9998 26.4001C19.2432 26.4001 18.5815 26.4001 17.9998 26.3853C16.7416 26.3533 15.8581 26.2521 15.1998 25.9321C14.949 25.8102 14.7308 25.6565 14.5371 25.4628C13.6866 24.6123 13.6071 23.2915 13.5998 20.8L13.6006 17.6C13.6079 15.1086 13.6866 13.7877 14.5371 12.9373Z" fill="#7F8596"/>
<path d="M24.6002 23.2C24.6002 22.8687 24.3316 22.6 24.0002 22.6H22.8002C22.4688 22.6 22.2002 22.8687 22.2002 23.2C22.2002 23.5314 22.4688 23.8 22.8002 23.8H24.0002C24.3316 23.8 24.6002 23.5314 24.6002 23.2Z" fill="#7F8596"/>
<path d="M15.4002 23.2C15.4002 22.8687 15.6688 22.6 16.0002 22.6H17.2002C17.5316 22.6 17.8002 22.8687 17.8002 23.2C17.8002 23.5314 17.5316 23.8 17.2002 23.8H16.0002C15.6688 23.8 15.4002 23.5314 15.4002 23.2Z" fill="#7F8596"/>
<path d="M14.8008 18.0001C14.8008 19.1315 14.8008 19.6972 15.1523 20.0486C15.5037 20.4001 16.0694 20.4001 17.2008 20.4001H22.8008C23.9322 20.4001 24.4979 20.4001 24.8493 20.0486C25.2008 19.6972 25.2008 19.1315 25.2008 18.0001V16.0001C25.2008 14.8687 25.2008 14.303 24.8493 13.9516C24.4979 13.6001 23.9322 13.6001 22.8008 13.6001H17.2008C16.0694 13.6001 15.5037 13.6001 15.1523 13.9516C14.8008 14.303 14.8008 14.8687 14.8008 16.0001V18.0001Z" fill="#7F8596"/>
<path d="M12.32 19.8401L13.6 20.8001L13.6007 17.6H12.8C12.3582 17.6 12 17.9582 12 18.4V19.2C12 19.4519 12.1186 19.689 12.32 19.8401Z" fill="#7F8596"/>
<path d="M27.2 17.6H26.3993L26.4 20.8001L27.68 19.8401C27.8815 19.689 28 19.4519 28 19.2V18.4C28 17.9582 27.6418 17.6 27.2 17.6Z" fill="#7F8596"/>
</svg>
