<svg width="40" height="40" viewBox="0 0 40 40" fill="none" xmlns="http://www.w3.org/2000/svg">
<ellipse cx="19.9986" cy="13.8" rx="4.00052" ry="3.8" fill="#7F8596"/>
<path fill-rule="evenodd" clip-rule="evenodd" d="M24.4985 29C22.8484 29 22.0233 29 21.5107 28.5131C20.998 28.0261 20.998 27.2424 20.998 25.675C20.998 24.1076 20.998 23.3239 21.5107 22.8369C22.0233 22.35 22.8484 22.35 24.4985 22.35C26.1486 22.35 26.9737 22.35 27.4863 22.8369C27.999 23.3239 27.999 24.1076 27.999 25.675C27.999 27.2424 27.999 28.0261 27.4863 28.5131C26.9737 29 26.1486 29 24.4985 29ZM26.4668 24.9585C26.6946 24.7421 26.6946 24.3912 26.4668 24.1748C26.239 23.9584 25.8696 23.9584 25.6417 24.1748L23.7206 25.9996L23.3553 25.6526C23.1274 25.4362 22.758 25.4362 22.5302 25.6526C22.3024 25.869 22.3024 26.2199 22.5302 26.4363L23.3081 27.1752C23.5359 27.3916 23.9053 27.3916 24.1332 27.1752L26.4668 24.9585Z" fill="#7F8596"/>
<path opacity="0.5" d="M26.0964 22.3796C25.6716 22.35 25.1503 22.35 24.5015 22.35C22.8514 22.35 22.0263 22.35 21.5137 22.8369C21.001 23.3239 21.001 24.1076 21.001 25.675C21.001 26.783 21.001 27.4994 21.1821 27.9961C20.7981 28.0315 20.4035 28.05 20.0009 28.05C16.1344 28.05 13 26.3487 13 24.25C13 22.1513 16.1344 20.45 20.0009 20.45C22.6147 20.45 24.8939 21.2275 26.0964 22.3796Z" fill="#7F8596"/>
</svg>
